<?xml version="1.0" encoding="UTF-8"?>
<!DOCTYPE svg PUBLIC "-//W3C//DTD SVG 1.1//EN" "http://www.w3.org/Graphics/SVG/1.1/DTD/svg11.dtd">
<svg xmlns="http://www.w3.org/2000/svg" version="1.1" width="2386px" height="1642px" style="shape-rendering:geometricPrecision; text-rendering:geometricPrecision; image-rendering:optimizeQuality; fill-rule:evenodd; clip-rule:evenodd" xmlns:xlink="http://www.w3.org/1999/xlink">
<g><path style="opacity:0.973" fill="#fefffe" d="M 515.5,149.5 C 692.834,149.333 870.167,149.5 1047.5,150C 1081.53,154.254 1107.7,170.754 1126,199.5C 1197.92,340.344 1269.59,481.344 1341,622.5C 1351,648.833 1351,675.167 1341,701.5C 1273,835.5 1205,969.5 1137,1103.5C 1130.01,1119.99 1120.18,1134.49 1107.5,1147C 1088.98,1163.4 1067.32,1172.4 1042.5,1174C 832.833,1174.67 623.167,1174.67 413.5,1174C 396.398,1169.53 390.231,1158.7 395,1141.5C 464.961,1003.74 534.794,865.911 604.5,728C 610.698,724.888 613.865,726.721 614,733.5C 551,857.5 488,981.5 425,1105.5C 423.612,1115.44 427.779,1121.61 437.5,1124C 628.5,1124.67 819.5,1124.67 1010.5,1124C 1032.94,1119.23 1043.77,1105.4 1043,1082.5C 1042.59,1079.77 1041.92,1077.1 1041,1074.5C 983.333,961.167 925.667,847.833 868,734.5C 867.69,726.975 870.857,724.975 877.5,728.5C 935.333,842.167 993.167,955.833 1051,1069.5C 1060.77,1083.03 1073.27,1086.2 1088.5,1079C 1092,1076.83 1094.83,1074 1097,1070.5C 1154.67,957.167 1212.33,843.833 1270,730.5C 1275.29,709.576 1267.79,695.409 1247.5,688C 1050.5,687.667 853.5,687.333 656.5,687C 640.129,683.609 632.296,673.442 633,656.5C 630.863,650.421 628.529,644.421 626,638.5C 559.411,508.323 493.078,377.989 427,247.5C 425.129,242.327 426.796,239.327 432,238.5C 433.473,238.903 434.806,239.57 436,240.5C 500,366.5 564,492.5 628,618.5C 633.581,628.74 642.081,635.24 653.5,638C 847.5,637.997 1041.5,637.664 1235.5,637C 1257.99,632.842 1269.16,619.342 1269,596.5C 1268.41,592.724 1267.41,589.057 1266,585.5C 1209.59,474.344 1152.92,363.344 1096,252.5C 1081.33,237.833 1066.67,237.833 1052,252.5C 993.667,367.167 935.333,481.833 877,596.5C 869.563,599.945 866.563,597.611 868,589.5C 925.922,475.989 983.589,362.322 1041,248.5C 1045.98,226.967 1038.48,211.467 1018.5,202C 1014.56,201.007 1010.56,200.34 1006.5,200C 802.445,199.003 598.445,199.337 394.5,201C 390.759,202.738 387.592,205.238 385,208.5C 316.139,345.057 246.639,481.224 176.5,617C 170.667,617.833 168.167,615.333 169,609.5C 246.333,457.5 323.667,305.5 401,153.5C 402.419,152.54 403.919,151.707 405.5,151C 442.336,150.833 479.002,150.333 515.5,149.5 Z"/></g>
<g><path style="opacity:0.977" fill="#fefffe" d="M 1304.5,150.5 C 1516.17,150.333 1727.83,150.5 1939.5,151C 1969.13,155.725 1992.63,170.225 2010,194.5C 2082.59,336.01 2154.92,477.677 2227,619.5C 2238.33,647.833 2238.33,676.167 2227,704.5C 2156.08,843.344 2085.41,982.344 2015,1121.5C 1995.59,1152.88 1967.42,1170.38 1930.5,1174C 1723.5,1174.67 1516.5,1174.67 1309.5,1174C 1299.01,1172.67 1290.51,1167.84 1284,1159.5C 1262.41,1117.99 1241.08,1076.32 1220,1034.5C 1218,1026.83 1220.67,1024.5 1228,1027.5C 1238.59,1047.68 1248.92,1068.01 1259,1088.5C 1267.06,1096.95 1275.73,1097.62 1285,1090.5C 1353.33,956.5 1421.67,822.5 1490,688.5C 1492.01,678.34 1488.17,671.507 1478.5,668C 1449.5,667.667 1420.5,667.333 1391.5,667C 1387.27,663.157 1387.6,659.823 1392.5,657C 1421.5,656.667 1450.5,656.333 1479.5,656C 1488.13,652.241 1491.63,645.741 1490,636.5C 1422.27,502.709 1354.27,369.042 1286,235.5C 1275.96,225.79 1266.63,226.456 1258,237.5C 1248.49,258.686 1238.32,279.52 1227.5,300C 1222.2,301.033 1219.7,298.866 1220,293.5C 1240.67,251.5 1261.33,209.5 1282,167.5C 1287.5,159.019 1295,153.352 1304.5,150.5 Z M 1384.5,199.5 C 1556.16,200.316 1727.83,200.816 1899.5,201C 1916.32,204.487 1926.49,214.654 1930,231.5C 1931.03,238.78 1930.03,245.78 1927,252.5C 1869.67,365.167 1812.33,477.833 1755,590.5C 1753.75,594.926 1755.41,597.592 1760,598.5C 1761.98,598.01 1763.65,597.01 1765,595.5C 1823,481.5 1881,367.5 1939,253.5C 1950.07,240.906 1962.9,238.739 1977.5,247C 1980.37,249.537 1982.87,252.37 1985,255.5C 2044.41,372.656 2104.08,489.656 2164,606.5C 2169.58,625.777 2164.08,640.944 2147.5,652C 2143.64,653.732 2139.64,655.066 2135.5,656C 1957.17,656.333 1778.83,656.667 1600.5,657C 1596.5,660.333 1596.5,663.667 1600.5,667C 1781.5,667.333 1962.5,667.667 2143.5,668C 2165.63,675.161 2173.46,689.994 2167,712.5C 2105.59,832.99 2043.92,953.323 1982,1073.5C 1970.42,1084.06 1957.92,1085.23 1944.5,1077C 1941.64,1074.11 1939.14,1070.94 1937,1067.5C 1879.5,954.5 1822,841.5 1764.5,728.5C 1757.86,724.975 1754.69,726.975 1755,734.5C 1812.67,847.833 1870.33,961.167 1928,1074.5C 1933.75,1096.16 1926.58,1112 1906.5,1122C 1903.58,1122.99 1900.58,1123.65 1897.5,1124C 1725.5,1124.67 1553.5,1124.67 1381.5,1124C 1361.05,1120.14 1349.72,1107.8 1347.5,1087C 1348.08,1082.02 1349.25,1077.19 1351,1072.5C 1418.74,938.677 1486.74,805.011 1555,671.5C 1557.97,661.071 1556.31,651.404 1550,642.5C 1483.08,511.656 1416.41,380.656 1350,249.5C 1345.01,230.802 1350.51,215.969 1366.5,205C 1372.29,202.01 1378.29,200.177 1384.5,199.5 Z"/></g>
<g><path style="opacity:0.915" fill="#fefffe" d="M 159.5,656.5 C 303.167,656.333 446.834,656.5 590.5,657C 593.287,659.167 594.12,662.001 593,665.5C 592.25,666.126 591.416,666.626 590.5,667C 454.833,667.333 319.167,667.667 183.5,668C 170.552,672.728 166.386,681.561 171,694.5C 236.256,822.011 301.256,949.677 366,1077.5C 367.5,1084 365,1086.5 358.5,1085C 357.667,1084.17 356.833,1083.33 356,1082.5C 287.667,947.833 219.333,813.167 151,678.5C 147.278,668.484 150.111,661.15 159.5,656.5 Z"/></g>
<g><path style="opacity:0.874" fill="#fefffe" d="M 396.5,1356.5 C 430.167,1356.5 463.833,1356.5 497.5,1356.5C 497.667,1367.51 497.5,1378.51 497,1389.5C 489.328,1395.68 481.828,1402.01 474.5,1408.5C 494.919,1419.66 504.086,1437 502,1460.5C 496.635,1486.19 480.801,1500.36 454.5,1503C 431.487,1505.24 413.32,1497.07 400,1478.5C 395.202,1469.1 393.036,1459.1 393.5,1448.5C 406.833,1448.5 420.167,1448.5 433.5,1448.5C 431.457,1456.92 434.457,1462.42 442.5,1465C 450.181,1467 456.681,1465.17 462,1459.5C 463.704,1452.72 462.204,1446.88 457.5,1442C 443.239,1440.55 428.906,1440.05 414.5,1440.5C 414.333,1429.83 414.5,1419.16 415,1408.5C 421.5,1403.33 428,1398.17 434.5,1393C 421.838,1392.5 409.171,1392.33 396.5,1392.5C 396.5,1380.5 396.5,1368.5 396.5,1356.5 Z M 404.5,1363.5 C 433.167,1363.5 461.833,1363.5 490.5,1363.5C 490.666,1370.84 490.5,1378.17 490,1385.5C 479.167,1394.33 468.333,1403.17 457.5,1412C 485.496,1417.7 497.662,1434.86 494,1463.5C 489.104,1479.4 478.604,1489.56 462.5,1494C 442.254,1499.06 424.754,1494.23 410,1479.5C 404.497,1472.83 401.664,1465.16 401.5,1456.5C 409.833,1456.5 418.167,1456.5 426.5,1456.5C 426.476,1461.62 428.476,1465.79 432.5,1469C 442.833,1475 453.167,1475 463.5,1469C 470.155,1462.41 471.988,1454.58 469,1445.5C 467.141,1439.64 463.307,1435.81 457.5,1434C 445.547,1432.63 433.547,1432.13 421.5,1432.5C 421.17,1425.8 421.503,1419.13 422.5,1412.5C 433.644,1403.86 444.644,1395.02 455.5,1386C 438.503,1385.5 421.503,1385.33 404.5,1385.5C 404.5,1378.17 404.5,1370.83 404.5,1363.5 Z"/></g>
<g><path style="opacity:0.903" fill="#fefffe" d="M 530.5,1356.5 C 556.502,1356.33 582.502,1356.5 608.5,1357C 646.092,1364.6 665.759,1387.6 667.5,1426C 666.57,1454.21 653.904,1475.21 629.5,1489C 622.204,1492.54 614.538,1494.88 606.5,1496C 581.169,1496.5 555.836,1496.67 530.5,1496.5C 530.5,1449.83 530.5,1403.17 530.5,1356.5 Z M 537.5,1363.5 C 559.836,1363.33 582.169,1363.5 604.5,1364C 639.458,1369.96 657.791,1390.62 659.5,1426C 658.884,1450.92 647.884,1469.58 626.5,1482C 619.204,1485.54 611.538,1487.88 603.5,1489C 581.503,1489.5 559.503,1489.67 537.5,1489.5C 537.5,1447.5 537.5,1405.5 537.5,1363.5 Z M 569.5,1395.5 C 581.171,1395.33 592.838,1395.5 604.5,1396C 624.138,1403.1 631.305,1416.94 626,1437.5C 621.897,1447.94 614.397,1454.44 603.5,1457C 592.172,1457.5 580.838,1457.67 569.5,1457.5C 569.5,1436.83 569.5,1416.17 569.5,1395.5 Z"/></g>
<g><path style="opacity:0.978" fill="#fefffe" d="M 704.5,1361.5 C 727.502,1361.33 750.502,1361.5 773.5,1362C 794.403,1366.23 807.57,1378.73 813,1399.5C 818.301,1431.42 805.801,1452.59 775.5,1463C 762.546,1464.38 749.546,1464.88 736.5,1464.5C 736.5,1473.5 736.5,1482.5 736.5,1491.5C 725.833,1491.5 715.167,1491.5 704.5,1491.5C 704.5,1448.17 704.5,1404.83 704.5,1361.5 Z M 736.5,1394.5 C 747.91,1394.07 759.244,1394.57 770.5,1396C 782.972,1404.64 784.638,1414.97 775.5,1427C 773.833,1428 772.167,1429 770.5,1430C 759.244,1431.43 747.91,1431.93 736.5,1431.5C 736.5,1419.17 736.5,1406.83 736.5,1394.5 Z"/></g>
<g><path style="opacity:0.974" fill="#fefffe" d="M 856.5,1361.5 C 881.538,1361.06 906.538,1361.56 931.5,1363C 954.718,1371.39 966.384,1388.06 966.5,1413C 966.719,1430.57 959.386,1443.9 944.5,1453C 953.833,1465.67 963.167,1478.33 972.5,1491C 958.821,1491.83 945.154,1491.67 931.5,1490.5C 924.833,1480.5 918.167,1470.5 911.5,1460.5C 904.197,1459.5 896.863,1459.17 889.5,1459.5C 889.5,1470.17 889.5,1480.83 889.5,1491.5C 878.5,1491.5 867.5,1491.5 856.5,1491.5C 856.5,1448.17 856.5,1404.83 856.5,1361.5 Z M 889.5,1394.5 C 900.578,1394.07 911.578,1394.57 922.5,1396C 933.136,1402.24 935.97,1411.08 931,1422.5C 927.603,1426.95 923.103,1429.45 917.5,1430C 908.173,1430.5 898.839,1430.67 889.5,1430.5C 889.5,1418.5 889.5,1406.5 889.5,1394.5 Z"/></g>
<g><path style="opacity:0.973" fill="#fefffe" d="M 1013.5,1361.5 C 1024.17,1361.5 1034.83,1361.5 1045.5,1361.5C 1045.5,1404.83 1045.5,1448.17 1045.5,1491.5C 1034.83,1491.5 1024.17,1491.5 1013.5,1491.5C 1013.5,1448.17 1013.5,1404.83 1013.5,1361.5 Z"/></g>
<g><path style="opacity:0.977" fill="#fefffe" d="M 1096.5,1361.5 C 1107.17,1361.33 1117.84,1361.5 1128.5,1362C 1149.21,1387.92 1170.05,1413.76 1191,1439.5C 1191.5,1413.5 1191.67,1387.5 1191.5,1361.5C 1202.17,1361.5 1212.83,1361.5 1223.5,1361.5C 1223.5,1404.83 1223.5,1448.17 1223.5,1491.5C 1212.83,1491.67 1202.16,1491.5 1191.5,1491C 1170.67,1466.17 1149.83,1441.33 1129,1416.5C 1128.5,1441.5 1128.33,1466.5 1128.5,1491.5C 1117.83,1491.5 1107.17,1491.5 1096.5,1491.5C 1096.5,1448.17 1096.5,1404.83 1096.5,1361.5 Z"/></g>
<g><path style="opacity:0.973" fill="#fefffe" d="M 1262.5,1361.5 C 1305.83,1361.5 1349.17,1361.5 1392.5,1361.5C 1392.5,1371.17 1392.5,1380.83 1392.5,1390.5C 1376.17,1390.5 1359.83,1390.5 1343.5,1390.5C 1343.5,1424.17 1343.5,1457.83 1343.5,1491.5C 1332.83,1491.5 1322.17,1491.5 1311.5,1491.5C 1311.5,1457.83 1311.5,1424.17 1311.5,1390.5C 1295.17,1390.5 1278.83,1390.5 1262.5,1390.5C 1262.5,1380.83 1262.5,1371.17 1262.5,1361.5 Z"/></g>
<g><path style="opacity:0.969" fill="#fefffe" d="M 1461.5,1361.5 C 1469.75,1361.18 1477.92,1361.52 1486,1362.5C 1506.4,1405.21 1526.9,1447.88 1547.5,1490.5C 1535.5,1491.83 1523.5,1491.83 1511.5,1490.5C 1508.96,1485.25 1506.29,1480.09 1503.5,1475C 1482.83,1474.33 1462.17,1474.33 1441.5,1475C 1438.56,1480.21 1435.9,1485.54 1433.5,1491C 1421.49,1491.83 1409.49,1491.67 1397.5,1490.5C 1418.58,1447.35 1439.91,1404.35 1461.5,1361.5 Z M 1471.5,1409.5 C 1472.38,1409.37 1473.04,1409.7 1473.5,1410.5C 1479.27,1422.64 1484.93,1434.81 1490.5,1447C 1478.83,1447.67 1467.17,1447.67 1455.5,1447C 1461.13,1434.6 1466.46,1422.1 1471.5,1409.5 Z"/></g>
<g><path style="opacity:0.973" fill="#fefffe" d="M 1591.5,1361.5 C 1616.5,1361.33 1641.5,1361.5 1666.5,1362C 1691.17,1367.17 1702.34,1382.33 1700,1407.5C 1699.27,1412.74 1697.77,1417.74 1695.5,1422.5C 1707.02,1438.18 1708.52,1454.85 1700,1472.5C 1693.66,1482.25 1684.83,1488.42 1673.5,1491C 1646.17,1491.5 1618.84,1491.67 1591.5,1491.5C 1591.5,1448.17 1591.5,1404.83 1591.5,1361.5 Z M 1623.5,1387.5 C 1635.84,1387.33 1648.17,1387.5 1660.5,1388C 1666.95,1389.62 1670.29,1393.79 1670.5,1400.5C 1669.83,1406.66 1666.5,1410.5 1660.5,1412C 1648.17,1412.5 1635.84,1412.67 1623.5,1412.5C 1623.5,1404.17 1623.5,1395.83 1623.5,1387.5 Z M 1623.5,1438.5 C 1638.17,1438.33 1652.84,1438.5 1667.5,1439C 1676.49,1444.3 1678.32,1451.46 1673,1460.5C 1671.42,1462.04 1669.59,1463.21 1667.5,1464C 1652.84,1464.5 1638.17,1464.67 1623.5,1464.5C 1623.5,1455.83 1623.5,1447.17 1623.5,1438.5 Z"/></g>
<g><path style="opacity:0.973" fill="#fefffe" d="M 1749.5,1361.5 C 1760.17,1361.5 1770.83,1361.5 1781.5,1361.5C 1781.5,1394.17 1781.5,1426.83 1781.5,1459.5C 1808.5,1459.5 1835.5,1459.5 1862.5,1459.5C 1862.5,1470.17 1862.5,1480.83 1862.5,1491.5C 1824.83,1491.5 1787.17,1491.5 1749.5,1491.5C 1749.5,1448.17 1749.5,1404.83 1749.5,1361.5 Z"/></g>
<g><path style="opacity:0.974" fill="#fefffe" d="M 1906.5,1361.5 C 1939.17,1361.5 1971.83,1361.5 2004.5,1361.5C 2004.5,1371.17 2004.5,1380.83 2004.5,1390.5C 1982.5,1390.5 1960.5,1390.5 1938.5,1390.5C 1938.5,1397.83 1938.5,1405.17 1938.5,1412.5C 1956.17,1412.5 1973.83,1412.5 1991.5,1412.5C 1991.5,1422.17 1991.5,1431.83 1991.5,1441.5C 1973.83,1441.5 1956.17,1441.5 1938.5,1441.5C 1938.5,1448.83 1938.5,1456.17 1938.5,1463.5C 1960.5,1463.5 1982.5,1463.5 2004.5,1463.5C 2004.5,1472.83 2004.5,1482.17 2004.5,1491.5C 1971.83,1491.5 1939.17,1491.5 1906.5,1491.5C 1906.5,1448.17 1906.5,1404.83 1906.5,1361.5 Z"/></g>
<g><path style="opacity:0.906" fill="#fefffe" d="M 562.5,1388.5 C 577.504,1388.33 592.504,1388.5 607.5,1389C 625.514,1394.69 634.847,1407.02 635.5,1426C 634.723,1445.59 625.056,1458.26 606.5,1464C 591.837,1464.5 577.17,1464.67 562.5,1464.5C 562.5,1439.17 562.5,1413.83 562.5,1388.5 Z M 569.5,1395.5 C 569.5,1416.17 569.5,1436.83 569.5,1457.5C 580.838,1457.67 592.172,1457.5 603.5,1457C 614.397,1454.44 621.897,1447.94 626,1437.5C 631.305,1416.94 624.138,1403.1 604.5,1396C 592.838,1395.5 581.171,1395.33 569.5,1395.5 Z"/></g>
</svg>
